<svg width="316" height="55" viewBox="0 0 316 55" fill="none" xmlns="http://www.w3.org/2000/svg">
<circle cx="25" cy="27" r="25" fill="#3884B2"/>
<path d="M12.24 31.904L7.368 26.6L12.24 21.296H17.4L12.504 26.6L17.4 31.904H12.24ZM29.8508 12.2L23.4188 39.488H19.4588L25.8908 12.2H29.8508ZM31.6058 21.296H36.7658L41.6378 26.6L36.7658 31.904H31.6058L36.5018 26.6L31.6058 21.296Z" fill="#F9F9F9"/>
<path d="M74.072 14.728V31.936C74.072 34.6 73.316 36.652 71.804 38.092C70.316 39.532 68.3 40.252 65.756 40.252C63.092 40.252 60.956 39.496 59.348 37.984C57.74 36.472 56.936 34.324 56.936 31.54H63.056C63.056 32.596 63.272 33.4 63.704 33.952C64.136 34.48 64.76 34.744 65.576 34.744C66.32 34.744 66.896 34.504 67.304 34.024C67.712 33.544 67.916 32.848 67.916 31.936V14.728H74.072ZM88.1885 40.288C86.2205 40.288 84.4445 39.868 82.8605 39.028C81.3005 38.188 80.0645 36.988 79.1525 35.428C78.2645 33.868 77.8205 32.044 77.8205 29.956C77.8205 27.892 78.2765 26.08 79.1885 24.52C80.1005 22.936 81.3485 21.724 82.9325 20.884C84.5165 20.044 86.2925 19.624 88.2605 19.624C90.2285 19.624 92.0045 20.044 93.5885 20.884C95.1725 21.724 96.4205 22.936 97.3325 24.52C98.2445 26.08 98.7005 27.892 98.7005 29.956C98.7005 32.02 98.2325 33.844 97.2965 35.428C96.3845 36.988 95.1245 38.188 93.5165 39.028C91.9325 39.868 90.1565 40.288 88.1885 40.288ZM88.1885 34.96C89.3645 34.96 90.3605 34.528 91.1765 33.664C92.0165 32.8 92.4365 31.564 92.4365 29.956C92.4365 28.348 92.0285 27.112 91.2125 26.248C90.4205 25.384 89.4365 24.952 88.2605 24.952C87.0605 24.952 86.0645 25.384 85.2725 26.248C84.4805 27.088 84.0845 28.324 84.0845 29.956C84.0845 31.564 84.4685 32.8 85.2365 33.664C86.0285 34.528 87.0125 34.96 88.1885 34.96ZM110.138 40.288C108.386 40.288 106.826 39.988 105.458 39.388C104.09 38.788 103.01 37.972 102.218 36.94C101.426 35.884 100.982 34.708 100.886 33.412H106.97C107.042 34.108 107.366 34.672 107.942 35.104C108.518 35.536 109.226 35.752 110.066 35.752C110.834 35.752 111.422 35.608 111.83 35.32C112.262 35.008 112.478 34.612 112.478 34.132C112.478 33.556 112.178 33.136 111.578 32.872C110.978 32.584 110.006 32.272 108.662 31.936C107.222 31.6 106.022 31.252 105.062 30.892C104.102 30.508 103.274 29.92 102.578 29.128C101.882 28.312 101.534 27.22 101.534 25.852C101.534 24.7 101.846 23.656 102.47 22.72C103.118 21.76 104.054 21.004 105.278 20.452C106.526 19.9 108.002 19.624 109.706 19.624C112.226 19.624 114.206 20.248 115.646 21.496C117.11 22.744 117.95 24.4 118.166 26.464H112.478C112.382 25.768 112.07 25.216 111.542 24.808C111.038 24.4 110.366 24.196 109.526 24.196C108.806 24.196 108.254 24.34 107.87 24.628C107.486 24.892 107.294 25.264 107.294 25.744C107.294 26.32 107.594 26.752 108.194 27.04C108.818 27.328 109.778 27.616 111.074 27.904C112.562 28.288 113.774 28.672 114.71 29.056C115.646 29.416 116.462 30.016 117.158 30.856C117.878 31.672 118.25 32.776 118.274 34.168C118.274 35.344 117.938 36.4 117.266 37.336C116.618 38.248 115.67 38.968 114.422 39.496C113.198 40.024 111.77 40.288 110.138 40.288ZM140.977 29.632C140.977 30.208 140.941 30.808 140.869 31.432H126.937C127.033 32.68 127.429 33.64 128.125 34.312C128.845 34.96 129.721 35.284 130.753 35.284C132.289 35.284 133.357 34.636 133.957 33.34H140.509C140.173 34.66 139.561 35.848 138.673 36.904C137.809 37.96 136.717 38.788 135.397 39.388C134.077 39.988 132.601 40.288 130.969 40.288C129.001 40.288 127.249 39.868 125.713 39.028C124.177 38.188 122.977 36.988 122.113 35.428C121.249 33.868 120.817 32.044 120.817 29.956C120.817 27.868 121.237 26.044 122.077 24.484C122.941 22.924 124.141 21.724 125.677 20.884C127.213 20.044 128.977 19.624 130.969 19.624C132.913 19.624 134.641 20.032 136.153 20.848C137.665 21.664 138.841 22.828 139.681 24.34C140.545 25.852 140.977 27.616 140.977 29.632ZM134.677 28.012C134.677 26.956 134.317 26.116 133.597 25.492C132.877 24.868 131.977 24.556 130.897 24.556C129.865 24.556 128.989 24.856 128.269 25.456C127.573 26.056 127.141 26.908 126.973 28.012H134.677ZM135.109 14.764L126.433 18.4V14.152L135.109 9.976V14.764ZM150.629 29.92C150.629 27.856 151.013 26.044 151.781 24.484C152.573 22.924 153.641 21.724 154.985 20.884C156.329 20.044 157.829 19.624 159.485 19.624C160.805 19.624 162.005 19.9 163.085 20.452C164.189 21.004 165.053 21.748 165.677 22.684V13.36H171.833V40H165.677V37.12C165.101 38.08 164.273 38.848 163.193 39.424C162.137 40 160.901 40.288 159.485 40.288C157.829 40.288 156.329 39.868 154.985 39.028C153.641 38.164 152.573 36.952 151.781 35.392C151.013 33.808 150.629 31.984 150.629 29.92ZM165.677 29.956C165.677 28.42 165.245 27.208 164.381 26.32C163.541 25.432 162.509 24.988 161.285 24.988C160.061 24.988 159.017 25.432 158.153 26.32C157.313 27.184 156.893 28.384 156.893 29.92C156.893 31.456 157.313 32.68 158.153 33.592C159.017 34.48 160.061 34.924 161.285 34.924C162.509 34.924 163.541 34.48 164.381 33.592C165.245 32.704 165.677 31.492 165.677 29.956ZM195.223 29.632C195.223 30.208 195.187 30.808 195.115 31.432H181.183C181.279 32.68 181.675 33.64 182.371 34.312C183.091 34.96 183.967 35.284 184.999 35.284C186.535 35.284 187.603 34.636 188.203 33.34H194.755C194.419 34.66 193.807 35.848 192.919 36.904C192.055 37.96 190.963 38.788 189.643 39.388C188.323 39.988 186.847 40.288 185.215 40.288C183.247 40.288 181.495 39.868 179.959 39.028C178.423 38.188 177.223 36.988 176.359 35.428C175.495 33.868 175.063 32.044 175.063 29.956C175.063 27.868 175.483 26.044 176.323 24.484C177.187 22.924 178.387 21.724 179.923 20.884C181.459 20.044 183.223 19.624 185.215 19.624C187.159 19.624 188.887 20.032 190.399 20.848C191.911 21.664 193.087 22.828 193.927 24.34C194.791 25.852 195.223 27.616 195.223 29.632ZM188.923 28.012C188.923 26.956 188.563 26.116 187.843 25.492C187.123 24.868 186.223 24.556 185.143 24.556C184.111 24.556 183.235 24.856 182.515 25.456C181.819 26.056 181.387 26.908 181.219 28.012H188.923ZM215.243 40.252C213.395 40.252 211.739 39.952 210.275 39.352C208.811 38.752 207.635 37.864 206.747 36.688C205.883 35.512 205.427 34.096 205.379 32.44H211.931C212.027 33.376 212.351 34.096 212.903 34.6C213.455 35.08 214.175 35.32 215.063 35.32C215.975 35.32 216.695 35.116 217.223 34.708C217.751 34.276 218.015 33.688 218.015 32.944C218.015 32.32 217.799 31.804 217.367 31.396C216.959 30.988 216.443 30.652 215.819 30.388C215.219 30.124 214.355 29.824 213.227 29.488C211.595 28.984 210.263 28.48 209.231 27.976C208.199 27.472 207.311 26.728 206.567 25.744C205.823 24.76 205.451 23.476 205.451 21.892C205.451 19.54 206.303 17.704 208.007 16.384C209.711 15.04 211.931 14.368 214.667 14.368C217.451 14.368 219.695 15.04 221.399 16.384C223.103 17.704 224.015 19.552 224.135 21.928H217.475C217.427 21.112 217.127 20.476 216.575 20.02C216.023 19.54 215.315 19.3 214.451 19.3C213.707 19.3 213.107 19.504 212.651 19.912C212.195 20.296 211.967 20.86 211.967 21.604C211.967 22.42 212.351 23.056 213.119 23.512C213.887 23.968 215.087 24.46 216.719 24.988C218.351 25.54 219.671 26.068 220.679 26.572C221.711 27.076 222.599 27.808 223.343 28.768C224.087 29.728 224.459 30.964 224.459 32.476C224.459 33.916 224.087 35.224 223.343 36.4C222.623 37.576 221.567 38.512 220.175 39.208C218.783 39.904 217.139 40.252 215.243 40.252ZM237.392 40.288C235.424 40.288 233.648 39.868 232.064 39.028C230.504 38.188 229.268 36.988 228.356 35.428C227.468 33.868 227.024 32.044 227.024 29.956C227.024 27.892 227.48 26.08 228.392 24.52C229.304 22.936 230.552 21.724 232.136 20.884C233.72 20.044 235.496 19.624 237.464 19.624C239.432 19.624 241.208 20.044 242.792 20.884C244.376 21.724 245.624 22.936 246.536 24.52C247.448 26.08 247.904 27.892 247.904 29.956C247.904 32.02 247.436 33.844 246.5 35.428C245.588 36.988 244.328 38.188 242.72 39.028C241.136 39.868 239.36 40.288 237.392 40.288ZM237.392 34.96C238.568 34.96 239.564 34.528 240.38 33.664C241.22 32.8 241.64 31.564 241.64 29.956C241.64 28.348 241.232 27.112 240.416 26.248C239.624 25.384 238.64 24.952 237.464 24.952C236.264 24.952 235.268 25.384 234.476 26.248C233.684 27.088 233.288 28.324 233.288 29.956C233.288 31.564 233.672 32.8 234.44 33.664C235.232 34.528 236.216 34.96 237.392 34.96ZM271.006 19.912V40H264.85V37.264C264.226 38.152 263.374 38.872 262.294 39.424C261.238 39.952 260.062 40.216 258.766 40.216C257.23 40.216 255.874 39.88 254.698 39.208C253.522 38.512 252.61 37.516 251.962 36.22C251.314 34.924 250.99 33.4 250.99 31.648V19.912H257.11V30.82C257.11 32.164 257.458 33.208 258.154 33.952C258.85 34.696 259.786 35.068 260.962 35.068C262.162 35.068 263.11 34.696 263.806 33.952C264.502 33.208 264.85 32.164 264.85 30.82V19.912H271.006ZM281.187 34.924H289.899V40H274.311V35.104L282.663 24.988H274.383V19.912H289.719V24.808L281.187 34.924ZM292.063 29.92C292.063 27.856 292.447 26.044 293.215 24.484C294.007 22.924 295.075 21.724 296.419 20.884C297.763 20.044 299.263 19.624 300.919 19.624C302.335 19.624 303.571 19.912 304.627 20.488C305.707 21.064 306.535 21.82 307.111 22.756V19.912H313.267V40H307.111V37.156C306.511 38.092 305.671 38.848 304.591 39.424C303.535 40 302.299 40.288 300.883 40.288C299.251 40.288 297.763 39.868 296.419 39.028C295.075 38.164 294.007 36.952 293.215 35.392C292.447 33.808 292.063 31.984 292.063 29.92ZM307.111 29.956C307.111 28.42 306.679 27.208 305.815 26.32C304.975 25.432 303.943 24.988 302.719 24.988C301.495 24.988 300.451 25.432 299.587 26.32C298.747 27.184 298.327 28.384 298.327 29.92C298.327 31.456 298.747 32.68 299.587 33.592C300.451 34.48 301.495 34.924 302.719 34.924C303.943 34.924 304.975 34.48 305.815 33.592C306.679 32.704 307.111 31.492 307.111 29.956Z" fill="#021E34"/>
</svg>
